<svg width="200" height="200" viewBox="0 0 200 200" fill="none" xmlns="http://www.w3.org/2000/svg">
<g clip-path="url(#clip0_128_3610)">
<g filter="url(#filter0_di_128_3610)">
<path d="M99.9166 0C53.9166 0 16.6666 37.3333 16.6666 83.3333C16.6666 129.333 53.9166 166.667 99.9166 166.667C146 166.667 183.333 129.333 183.333 83.3333C183.333 37.3333 146 0 99.9166 0ZM100 150C63.1666 150 33.3333 120.167 33.3333 83.3333C33.3333 46.5 63.1666 16.6667 100 16.6667C136.833 16.6667 166.667 46.5 166.667 83.3333C166.667 120.167 136.833 150 100 150ZM104.167 41.6667H91.6666V91.6667L135.417 117.917L141.667 107.667L104.167 85.4167V41.6667Z" fill="#F29D38"/>
</g>
</g>
<defs>
<filter id="filter0_di_128_3610" x="12.6666" y="0" width="174.667" height="174.667" filterUnits="userSpaceOnUse" color-interpolation-filters="sRGB">
<feFlood flood-opacity="0" result="BackgroundImageFix"/>
<feColorMatrix in="SourceAlpha" type="matrix" values="0 0 0 0 0 0 0 0 0 0 0 0 0 0 0 0 0 0 127 0" result="hardAlpha"/>
<feOffset dy="4"/>
<feGaussianBlur stdDeviation="2"/>
<feComposite in2="hardAlpha" operator="out"/>
<feColorMatrix type="matrix" values="0 0 0 0 0.94902 0 0 0 0 0.615686 0 0 0 0 0.219608 0 0 0 0.25 0"/>
<feBlend mode="normal" in2="BackgroundImageFix" result="effect1_dropShadow_128_3610"/>
<feBlend mode="normal" in="SourceGraphic" in2="effect1_dropShadow_128_3610" result="shape"/>
<feColorMatrix in="SourceAlpha" type="matrix" values="0 0 0 0 0 0 0 0 0 0 0 0 0 0 0 0 0 0 127 0" result="hardAlpha"/>
<feOffset dx="2" dy="1"/>
<feGaussianBlur stdDeviation="2"/>
<feComposite in2="hardAlpha" operator="arithmetic" k2="-1" k3="1"/>
<feColorMatrix type="matrix" values="0 0 0 0 1 0 0 0 0 1 0 0 0 0 1 0 0 0 0.25 0"/>
<feBlend mode="normal" in2="shape" result="effect2_innerShadow_128_3610"/>
</filter>
<clipPath id="clip0_128_3610">
<rect width="200" height="200" fill="white"/>
</clipPath>
</defs>
</svg>
