<svg width="891" height="863" viewBox="0 0 891 863" fill="none"
  xmlns="http://www.w3.org/2000/svg">
  <g clip-path="url(#clip0_34_1058)">
    <path d="M638.143 862.058C777.319 862.058 890.143 851.647 890.143 838.805C890.143 825.963 777.319 815.552 638.143 815.552C498.967 815.552 386.143 825.963 386.143 838.805C386.143 851.647 498.967 862.058 638.143 862.058Z" fill="white"/>
    <path opacity="0.1" d="M638.143 862.058C777.319 862.058 890.143 851.647 890.143 838.805C890.143 825.963 777.319 815.552 638.143 815.552C498.967 815.552 386.143 825.963 386.143 838.805C386.143 851.647 498.967 862.058 638.143 862.058Z" fill="#292A2E"/>
    <path d="M219.812 493.015H139.486V516.387H219.812V493.015Z" fill="#F4F4F4"/>
    <path opacity="0.05" d="M160.798 493.015H150.273V516.387H160.798V493.015Z" fill="#292A2E"/>
    <path d="M209.548 498.095H165.784V511.945H209.548V498.095Z" fill="white"/>
    <path d="M283.883 496.064L209.246 463.466L199.892 484.884L274.528 517.482L283.883 496.064Z" fill="#F4F4F4"/>
    <path opacity="0.05" d="M283.883 496.064L209.246 463.466L199.892 484.884L274.528 517.482L283.883 496.064Z" fill="#292A2E"/>
    <path d="M273.86 491.686L264.08 487.415L254.726 508.833L264.505 513.105L273.86 491.686Z" fill="white"/>
    <path d="M257.413 490.047L216.75 472.286L211.206 484.979L251.87 502.739L257.413 490.047Z" fill="white"/>
    <path opacity="0.05" d="M284.023 789.091H263.837V802.572H284.023V789.091Z" fill="#292A2E"/>
    <path opacity="0.05" d="M77.6421 789.091H57.4561V802.572H77.6421V789.091Z" fill="#292A2E"/>
    <path d="M302.527 517.483H38.953V788.635H302.527V517.483Z" fill="#F4F4F4"/>
    <path opacity="0.03" d="M302.527 517.483H38.953V788.635H302.527V517.483Z" fill="#292A2E"/>
    <path d="M351.371 517.483H87.797V788.635H351.371V517.483Z" fill="#F4F4F4"/>
    <path opacity="0.05" d="M332.867 789.091H312.681V802.572H332.867V789.091Z" fill="#292A2E"/>
    <path opacity="0.05" d="M126.487 789.091H106.301V802.572H126.487V789.091Z" fill="#292A2E"/>
    <path opacity="0.7" d="M341.478 530.183H97.692V582.277H341.478V530.183Z" fill="white"/>
    <path opacity="0.7" d="M341.478 595.027H97.692V647.121H341.478V595.027Z" fill="white"/>
    <path opacity="0.7" d="M341.478 659.871H97.692V711.965H341.478V659.871Z" fill="white"/>
    <path opacity="0.05" d="M219.585 563.519C223.611 563.519 226.874 560.256 226.874 556.23C226.874 552.204 223.611 548.941 219.585 548.941C215.559 548.941 212.296 552.204 212.296 556.23C212.296 560.256 215.559 563.519 219.585 563.519Z" fill="#292A2E"/>
    <path opacity="0.05" d="M219.585 628.363C223.611 628.363 226.874 625.1 226.874 621.074C226.874 617.048 223.611 613.785 219.585 613.785C215.559 613.785 212.296 617.048 212.296 621.074C212.296 625.1 215.559 628.363 219.585 628.363Z" fill="#292A2E"/>
    <path opacity="0.05" d="M219.585 693.208C223.611 693.208 226.874 689.944 226.874 685.919C226.874 681.893 223.611 678.63 219.585 678.63C215.559 678.63 212.296 681.893 212.296 685.919C212.296 689.944 215.559 693.208 219.585 693.208Z" fill="#292A2E"/>
    <path opacity="0.7" d="M341.478 726.177H97.692V778.271H341.478V726.177Z" fill="white"/>
    <path opacity="0.05" d="M219.585 759.513C223.611 759.513 226.874 756.25 226.874 752.224C226.874 748.198 223.611 744.935 219.585 744.935C215.559 744.935 212.296 748.198 212.296 752.224C212.296 756.25 215.559 759.513 219.585 759.513Z" fill="#292A2E"/>
    <path d="M132.517 248.353L288.37 248.353V45.4919L132.517 45.4919L132.517 248.353Z" fill="#F4F4F4"/>
    <path d="M132.518 45.4919H127.462V248.353H132.518V45.4919Z" fill="#F4F4F4"/>
    <path opacity="0.05" d="M132.518 45.4919H127.462V248.353H132.518V45.4919Z" fill="#292A2E"/>
    <path opacity="0.05" d="M160.909 211.399H259.98V82.4449H160.909V211.399Z" fill="#292A2E"/>
    <path opacity="0.03" d="M160.909 211.399H166.072L166.072 82.4449H160.909L160.909 211.399Z" fill="#292A2E"/>
    <path d="M5.05496 426.872H132.517L132.517 298.239H5.05496L5.05496 426.872Z" fill="#F4F4F4"/>
    <path opacity="0.05" d="M28.274 403.44H109.298L109.298 321.672H28.274L28.274 403.44Z" fill="#292A2E"/>
    <path d="M5.056 298.24H0V426.873H5.056V298.24Z" fill="#F4F4F4"/>
    <path opacity="0.05" d="M5.056 298.24H0V426.873H5.056V298.24Z" fill="#292A2E"/>
    <path opacity="0.03" d="M28.274 403.44H33.437L33.437 321.672H28.274L28.274 403.44Z" fill="#292A2E"/>
    <path d="M782.301 45.009H457.061V370.249H782.301V45.009Z" fill="#F4F4F4"/>
    <path d="M457.061 45.009H453.333V370.249H457.061V45.009Z" fill="#F4F4F4"/>
    <path opacity="0.05" d="M457.061 45.009H453.333V370.249H457.061V45.009Z" fill="#292A2E"/>
    <path opacity="0.05" d="M535.852 269.126V184.032H605.556V233.47H713.527V321.005H759.417V370.249H713.527H704.687H472.706V269.126H535.852Z" fill="#292A2E"/>
    <path opacity="0.34" d="M596.608 193.271H545.849V202.51H596.608V193.271Z" fill="#FFFFFA"/>
    <path opacity="0.34" d="M596.608 212.417H545.849V221.656H596.608V212.417Z" fill="#FFFFFA"/>
    <path opacity="0.34" d="M596.608 231.563H545.849V240.802H596.608V231.563Z" fill="#FFFFFA"/>
    <path opacity="0.34" d="M491.063 278.094H481.707V287.333H491.063V278.094Z" fill="#FFFFFA"/>
    <path opacity="0.34" d="M491.063 297.24H481.707V306.479H491.063V297.24Z" fill="#FFFFFA"/>
    <path opacity="0.34" d="M491.063 316.385H481.707V325.624H491.063V316.385Z" fill="#FFFFFA"/>
    <path opacity="0.34" d="M508.371 278.094H499.015V287.333H508.371V278.094Z" fill="#FFFFFA"/>
    <path opacity="0.34" d="M508.371 297.24H499.015V306.479H508.371V297.24Z" fill="#FFFFFA"/>
    <path opacity="0.34" d="M508.371 316.385H499.015V325.624H508.371V316.385Z" fill="#FFFFFA"/>
    <path opacity="0.34" d="M525.211 278.094H515.855V287.333H525.211V278.094Z" fill="#FFFFFA"/>
    <path opacity="0.34" d="M525.211 297.24H515.855V306.479H525.211V297.24Z" fill="#FFFFFA"/>
    <path opacity="0.34" d="M525.211 316.385H515.855V325.624H525.211V316.385Z" fill="#FFFFFA"/>
    <path d="M457.061 205.804H522.504V45.0081H527.917V205.804H704.687V45.0081H710.099V205.804H782.301V211.216H710.099V370.249H704.687V211.216H527.917V370.249H522.504V211.216H457.061V205.804Z" fill="white"/>
    <path d="M795.257 369.856H444.104V380.672H795.257V369.856Z" fill="#F4F4F4"/>
    <path opacity="0.1" d="M795.257 369.856H444.104V380.672H795.257V369.856Z" fill="#292A2E"/>
    <path opacity="0.1" d="M444.104 369.856H439.034V380.672H444.104V369.856Z" fill="#292A2E"/>
    <path opacity="0.1" d="M444.104 369.856H439.034V380.672H444.104V369.856Z" fill="#292A2E"/>
    <path d="M726.529 425.574C676.737 425.574 636.372 439.158 636.372 455.915V492.036H816.687V455.915C816.687 439.158 776.322 425.574 726.529 425.574Z" fill="#367CFF"/>
    <path opacity="0.49" d="M726.529 425.574C676.737 425.574 636.372 439.158 636.372 455.915V492.036H816.687V455.915C816.687 439.158 776.322 425.574 726.529 425.574Z" fill="white"/>
    <path opacity="0.49" d="M792.127 455.919V492.034H636.37V455.919C636.37 440.56 670.27 427.869 714.248 425.863C758.231 427.869 792.127 440.56 792.127 455.919Z" fill="white"/>
    <path d="M816.687 843.01H819.713L816.687 488.832L813.687 491.858L815.826 739.261L709.013 741.076L706.858 491.832L703.858 491.858L706.014 741.127L641.535 742.223L639.37 491.832L636.37 488.858L639.396 843.01L642.37 842.985L641.56 745.224L706.039 744.128L706.858 843.01L709.858 842.985L709.039 744.077L815.852 742.261L816.687 843.01Z" fill="#292A2E"/>
    <path d="M544.74 789.984C544.74 789.984 539.378 817.777 513.355 819.326C487.332 820.875 492.975 841.606 492.975 841.606H592.42V791.922L544.74 789.984Z" fill="#367CFF"/>
    <path d="M601.477 706.388C601.477 706.388 608.934 733.694 586.268 746.571C563.602 759.448 577.816 775.559 577.816 775.559L667.047 731.659L645.116 687.078L601.477 706.388Z" fill="#367CFF"/>
    <path d="M592.036 724.435L524.8 470.746C519.7 442.72 527.378 430.572 539.209 418.771C559.995 398.038 646.126 353.91 646.126 353.91L749.456 353.628C776.856 353.628 803.789 380.645 803.789 408.043C803.789 435.441 775.936 458.677 748.537 458.677L621.295 471.377L655.787 703.663L592.036 724.435Z" fill="#262626"/>
    <path d="M655.786 703.661L642.207 612.213L573.415 654.177L592.036 724.435L655.786 703.661Z" fill="#0C0C0C"/>
    <path d="M671.379 405.247C671.379 405.247 627.942 414.927 584.922 457.947C558.839 484.03 560.978 531.231 564.891 622.014L607.618 558.904L654.482 474.382L671.379 405.247Z" fill="#0C0C0C"/>
    <path d="M821.777 353.6L751.603 353.269L751.577 354.193H730.328C730.328 354.193 677.1 403.169 634.25 434.032C603.08 456.48 584.065 477.882 582.42 501.208C578.409 558.069 533.171 800.574 533.171 800.574L601.253 810.883L661 521.071C661 521.071 754.42 478 776.029 463.015C796.377 448.902 810.75 443.446 817.484 428.044C829.113 401.443 821.777 353.6 821.777 353.6Z" fill="#262626"/>
    <path d="M743.05 371.275L629.21 372.783L693.069 410.923L746.205 383.484C747.485 382.796 748.498 381.699 749.08 380.368C749.663 379.037 749.782 377.548 749.419 376.141C749.055 374.734 748.23 373.49 747.075 372.608C745.92 371.726 744.503 371.256 743.05 371.275Z" fill="#292A2E"/>
    <path opacity="0.2" d="M743.05 371.275L629.21 372.783L693.069 410.923L746.205 383.484C747.485 382.796 748.498 381.699 749.08 380.368C749.663 379.037 749.782 377.548 749.419 376.141C749.055 374.734 748.23 373.49 747.075 372.608C745.92 371.726 744.503 371.256 743.05 371.275Z" fill="white"/>
    <path d="M629.862 167.045L597.662 271.376L533.167 355.818L570.842 399.066L647.571 313.427C651.106 310.633 653.871 306.985 655.606 302.827L656.801 299.934L701.121 192.7L629.862 167.045Z" fill="#367CFF"/>
    <path d="M679.465 56.2999C679.465 56.2999 666.49 46.4999 663.276 23.9599C660.786 6.50692 676.886 17.8139 676.886 17.8139C676.886 17.8139 675.216 5.22892 684.386 6.47792C693.556 7.72692 698.686 20.9469 698.686 20.9469" fill="#0C0C0C"/>
    <path d="M731.776 7.95093C731.776 7.95093 777.27 12.8279 760.824 74.4759L756.799 74.7459L748.627 75.2939" fill="#0C0C0C"/>
    <path d="M687.085 138.858C687.285 138.832 689.505 175.658 732.285 172.451C761.906 170.232 772.467 138.806 773.145 138.806C769.952 138.127 766.005 137.097 764.437 136.744C761.019 135.951 757.923 134.135 755.561 131.539C753.199 128.943 751.684 125.69 751.217 122.212C750.351 116.992 751.817 90.284 751.368 85.002L705.906 95.15C706.542 106.306 710.988 132.167 695.406 136.744C692.811 137.5 690.017 138.2 687.085 138.858Z" fill="#E98862"/>
    <path opacity="0.52" d="M705.269 126.175C705.981 123.88 706.44 121.513 706.637 119.118C707.136 113.652 707.035 108.149 706.337 102.705C715.579 101.46 724.285 97.6469 731.468 91.7C732.313 94.818 736.956 108.442 735.668 111.4C733.24 117 721.821 126.175 705.269 126.175Z" fill="#0C0C0C"/>
    <path d="M714.653 118.886C732.59 117.277 754.059 105.944 754.369 81.595L754.648 59.625C754.958 35.277 742.42 15.376 719.495 15.084C696.57 14.793 679.183 34.313 678.873 58.662L678.75 68.388C678.765 71.7284 679.009 75.0638 679.478 78.371C680.654 87.121 682.478 100.424 688.416 109.423C694.023 117.919 703.193 119.913 714.653 118.886Z" fill="#E98862"/>
    <path opacity="0.52" d="M706.331 96.63C702.629 96.7977 698.94 96.0931 695.56 94.573C695.422 94.5106 695.314 94.3967 695.259 94.2556C695.204 94.1146 695.206 93.9576 695.266 93.8183C695.325 93.679 695.437 93.5686 695.577 93.5105C695.716 93.4525 695.873 93.4516 696.014 93.508C703.295 96.613 709.906 96.159 715.132 92.194C715.237 92.1106 715.347 92.0328 715.46 91.961C715.591 91.8991 715.741 91.889 715.88 91.9325C716.019 91.976 716.136 92.07 716.208 92.1959C716.281 92.3218 716.303 92.4703 716.271 92.612C716.239 92.7537 716.155 92.8783 716.036 92.961C715.994 92.987 715.926 93.04 715.836 93.112C713.089 95.2048 709.779 96.4298 706.331 96.63Z" fill="#0C0C0C"/>
    <path opacity="0.52" d="M706.5 102.115C705.831 102.156 705.16 102.14 704.494 102.067C704.419 102.059 704.345 102.036 704.279 102C704.212 101.964 704.153 101.914 704.105 101.855C704.058 101.796 704.022 101.728 704 101.656C703.979 101.583 703.972 101.506 703.98 101.431C703.988 101.355 704.011 101.282 704.047 101.216C704.083 101.149 704.133 101.09 704.192 101.042C704.251 100.995 704.319 100.959 704.391 100.937C704.464 100.916 704.541 100.909 704.616 100.917C708.622 101.342 710.535 99.507 710.616 99.428C710.724 99.3194 710.871 99.2582 711.025 99.2581C711.178 99.2579 711.325 99.3186 711.434 99.427C711.543 99.5353 711.604 99.6824 711.604 99.8358C711.604 99.9892 711.543 100.136 711.435 100.245C710.055 101.42 708.312 102.08 706.5 102.115Z" fill="#0C0C0C"/>
    <path d="M686.444 73.07C688.004 73.07 689.268 71.8057 689.268 70.246C689.268 68.6864 688.004 67.422 686.444 67.422C684.884 67.422 683.62 68.6864 683.62 70.246C683.62 71.8057 684.884 73.07 686.444 73.07Z" fill="#0C0C0C"/>
    <path d="M714.033 71.339C715.593 71.339 716.857 70.0747 716.857 68.515C716.857 66.9554 715.593 65.691 714.033 65.691C712.473 65.691 711.209 66.9554 711.209 68.515C711.209 70.0747 712.473 71.339 714.033 71.339Z" fill="#0C0C0C"/>
    <path d="M752.851 89C759.818 89.089 765.56 81.707 765.651 74.74C765.742 67.773 760.14 63.859 753.173 63.771L749.524 68.393L746.863 88.924L752.851 89Z" fill="#E98862"/>
    <path d="M745.919 77.8C745.919 77.8 743.567 43.347 733.119 41.219C726.161 39.802 709.288 49.672 693.659 46.691C686.822 45.391 680.331 47.079 679.671 50.309C679.409 51.588 675.15 33.209 685.857 19.265C694.382 8.16504 722.279 5.02504 734.971 8.66504C770.115 18.747 754.607 65.282 754.607 65.282L753.04 77.16L745.919 77.8Z" fill="#0C0C0C"/>
    <g opacity="0.52">
      <path d="M702.119 88.5001C702.104 88.5011 702.09 88.5011 702.075 88.5001C699.83 88.4781 696.066 88.1891 696.081 86.5101C696.097 85.1181 700.057 70.1351 700.509 68.4311C700.548 68.2844 700.643 68.1592 700.775 68.083C700.906 68.0067 701.062 67.9857 701.209 68.0246C701.355 68.0634 701.481 68.159 701.557 68.2901C701.633 68.4213 701.654 68.5774 701.615 68.7241C699.855 75.3601 697.235 85.5761 697.225 86.5241C697.442 86.9241 699.761 87.3361 702.085 87.3601C702.232 87.3632 702.372 87.4225 702.476 87.5258C702.58 87.629 702.64 87.7683 702.645 87.9149C702.649 88.0615 702.597 88.2042 702.499 88.3134C702.401 88.4227 702.265 88.4902 702.119 88.5021V88.5001Z" fill="#0C0C0C"/>
    </g>
    <path d="M694.46 54.934C692.1 54.2845 689.609 54.2845 687.249 54.934C686.09 55.2457 684.985 55.7297 683.97 56.37C682.966 56.9969 682.046 57.7482 681.23 58.606C681.08 58.7588 680.994 58.9637 680.991 59.178C680.988 59.3924 681.068 59.5997 681.213 59.7568C681.359 59.914 681.56 60.0088 681.774 60.0217C681.988 60.0346 682.199 59.9645 682.362 59.826L682.413 59.782C683.168 59.0827 684.008 58.4816 684.913 57.993C685.801 57.5065 686.758 57.1572 687.75 56.957C689.704 56.5474 691.731 56.6608 693.627 57.286L693.706 57.314C694.016 57.414 694.354 57.3891 694.646 57.2444C694.938 57.0998 695.162 56.8469 695.271 56.5395C695.379 56.2321 695.364 55.8945 695.227 55.5984C695.091 55.3023 694.844 55.0711 694.54 54.954L694.46 54.934Z" fill="#0C0C0C"/>
    <path d="M711.167 56.3511C712.963 55.4787 714.957 55.0961 716.948 55.2421C717.958 55.3077 718.953 55.5262 719.897 55.8901C720.858 56.2546 721.77 56.7384 722.61 57.3301L722.664 57.3661C722.845 57.4824 723.063 57.5245 723.274 57.4836C723.485 57.4428 723.672 57.3221 723.795 57.1468C723.919 56.9715 723.971 56.7551 723.939 56.5427C723.907 56.3304 723.795 56.1385 723.625 56.0071C722.703 55.2656 721.69 54.6437 720.612 54.1561C719.521 53.6569 718.36 53.3246 717.17 53.1701C714.745 52.8396 712.276 53.1703 710.024 54.1271C709.873 54.1927 709.736 54.2875 709.622 54.406C709.508 54.5244 709.418 54.6642 709.357 54.8175C709.297 54.9707 709.267 55.1343 709.27 55.2989C709.273 55.4636 709.308 55.6261 709.374 55.7771C709.507 56.0821 709.755 56.3219 710.065 56.4438C710.218 56.5042 710.381 56.5338 710.546 56.5309C710.711 56.528 710.873 56.4927 711.024 56.4271L711.094 56.3941L711.167 56.3511Z" fill="#0C0C0C"/>
    <path d="M710.023 19.422C711.609 11.8318 708.714 4.80531 703.557 3.72789C698.4 2.65046 692.934 7.93014 691.348 15.5203C689.762 23.1105 692.657 30.137 697.814 31.2144C702.971 32.2918 708.437 27.0122 710.023 19.422Z" fill="#0C0C0C"/>
    <path d="M633.926 219.8C635.274 235.632 644.826 334.41 646.126 353.912H821.7C822.709 336.323 827.238 259.412 831.064 225.012C834.716 192.19 839.834 177.254 835.628 167.055C828.21 149.065 804.598 141.032 788.609 138.867C778.845 137.545 764.16 136.598 764.16 136.598C764.16 136.598 762.917 161.751 733.269 163.151C692.909 165.051 695.605 136.598 695.405 136.598C688.866 136.598 653.277 141.353 644.377 147.153C631.808 155.345 628.093 166.51 627.946 176.767C627.778 188.58 632.4 201.841 633.926 219.8Z" fill="#367CFF"/>
    <path d="M642.829 314.986C642.704 314.986 642.583 314.94 642.49 314.855C642.397 314.771 642.34 314.655 642.329 314.53L635.677 238.45C635.665 238.318 635.707 238.187 635.792 238.085C635.877 237.983 635.999 237.92 636.131 237.908C636.197 237.901 636.263 237.908 636.326 237.927C636.389 237.947 636.448 237.978 636.498 238.021C636.549 238.063 636.59 238.115 636.62 238.174C636.65 238.233 636.668 238.297 636.673 238.363L643.325 314.443C643.336 314.575 643.295 314.706 643.21 314.807C643.125 314.909 643.003 314.972 642.871 314.984C642.857 314.985 642.843 314.986 642.829 314.986Z" fill="#0C0C0C"/>
    <path d="M655.56 359.178L679.668 339.619L675.611 340.766C674.294 341.11 672.896 340.941 671.698 340.294C670.501 339.646 669.594 338.568 669.161 337.278C668.961 336.604 668.9 335.897 668.982 335.199C669.064 334.501 669.287 333.827 669.639 333.218C669.99 332.609 670.461 332.078 671.024 331.657C671.588 331.237 672.231 330.935 672.914 330.771L723.56 318.453L727.918 334.585C729.272 339.595 729.099 344.895 727.421 349.807C725.743 354.718 722.637 359.016 718.5 362.15L699.734 376.312C698.773 377.066 697.582 377.465 696.361 377.441C695.14 377.418 693.965 376.974 693.034 376.184C692.207 375.452 691.637 374.475 691.405 373.395C691.173 372.316 691.293 371.191 691.747 370.184C691.666 370.16 691.592 370.114 691.535 370.052C691.484 369.991 691.45 369.919 691.434 369.842C691.418 369.765 691.421 369.685 691.444 369.609L687.987 372.227C686.919 373.071 685.57 373.477 684.214 373.365C682.857 373.252 681.594 372.628 680.68 371.62C679.894 370.69 679.462 369.514 679.458 368.296C679.455 367.079 679.881 365.9 680.661 364.966C680.607 364.958 680.554 364.94 680.506 364.913L679.086 365.989C678.125 366.743 676.934 367.142 675.713 367.118C674.492 367.095 673.317 366.651 672.386 365.861C671.384 364.973 670.764 363.732 670.657 362.397C670.55 361.062 670.964 359.738 671.812 358.702C671.792 358.673 671.775 358.642 671.762 358.609L661.722 366.754C661.224 367.158 660.652 367.46 660.038 367.642C659.423 367.825 658.779 367.884 658.142 367.818C657.504 367.751 656.886 367.56 656.323 367.255C655.759 366.95 655.261 366.536 654.858 366.039C654.454 365.541 654.152 364.968 653.969 364.354C653.787 363.74 653.727 363.095 653.794 362.458C653.86 361.821 654.051 361.203 654.357 360.639C654.662 360.076 655.075 359.578 655.573 359.174L655.56 359.178Z" fill="#E98862"/>
    <path opacity="0.2" d="M672.362 358.9C672.415 358.881 672.465 358.853 672.508 358.817L682.168 350.792C682.217 350.751 682.258 350.701 682.287 350.645C682.317 350.588 682.335 350.526 682.341 350.463C682.347 350.399 682.34 350.335 682.321 350.274C682.302 350.213 682.271 350.157 682.231 350.108C682.19 350.058 682.14 350.018 682.083 349.988C682.027 349.959 681.965 349.94 681.901 349.935C681.838 349.929 681.774 349.935 681.713 349.954C681.652 349.973 681.595 350.004 681.546 350.045L671.887 358.069C671.799 358.142 671.74 358.244 671.72 358.356C671.699 358.469 671.719 358.585 671.776 358.684C671.833 358.783 671.922 358.859 672.03 358.898C672.137 358.938 672.254 358.939 672.362 358.9Z" fill="#0A0A0A"/>
    <path opacity="0.2" d="M680.875 364.961C680.927 364.943 680.976 364.915 681.018 364.88L688.659 358.632C688.759 358.55 688.822 358.433 688.835 358.304C688.848 358.176 688.81 358.048 688.728 357.948C688.647 357.848 688.529 357.785 688.4 357.772C688.272 357.759 688.144 357.797 688.044 357.879L680.403 364.127C680.314 364.199 680.254 364.301 680.232 364.414C680.211 364.527 680.23 364.643 680.287 364.743C680.343 364.843 680.434 364.92 680.541 364.96C680.649 365 680.767 365 680.875 364.961Z" fill="#0A0A0A"/>
    <path opacity="0.2" d="M692.059 370.2C692.115 370.18 692.167 370.149 692.212 370.111L695.751 367.076C695.799 367.034 695.839 366.984 695.868 366.927C695.897 366.87 695.914 366.808 695.919 366.745C695.924 366.681 695.916 366.617 695.896 366.557C695.877 366.496 695.845 366.44 695.804 366.391C695.762 366.343 695.711 366.303 695.655 366.275C695.598 366.246 695.536 366.228 695.472 366.223C695.409 366.219 695.345 366.226 695.284 366.246C695.224 366.266 695.167 366.297 695.119 366.339L691.579 369.374C691.493 369.448 691.436 369.55 691.417 369.662C691.398 369.773 691.419 369.888 691.476 369.986C691.533 370.084 691.623 370.159 691.729 370.198C691.836 370.237 691.952 370.238 692.059 370.2Z" fill="#0A0A0A"/>
    <path d="M868.632 311.271L868.447 310.45L836.4 168.708L773 183.04L798.013 293.679L697.815 318.3L710.146 374.838L843.672 349.37C843.972 349.311 844.417 349.221 844.721 349.152C848.778 348.235 852.615 346.527 856.013 344.127C859.41 341.727 862.302 338.681 864.522 335.164C866.743 331.646 868.248 327.726 868.953 323.626C869.659 319.527 869.549 315.328 868.632 311.271Z" fill="#367CFF"/>
    <path d="M697.325 318.407C697.299 318.28 697.322 318.148 697.391 318.038C697.46 317.929 697.569 317.85 697.695 317.819L797.447 293.319L781.228 221.683C781.21 221.618 781.205 221.549 781.214 221.482C781.223 221.415 781.245 221.35 781.28 221.292C781.315 221.234 781.361 221.184 781.416 221.144C781.47 221.104 781.533 221.076 781.599 221.061C781.665 221.046 781.733 221.044 781.8 221.056C781.867 221.069 781.93 221.094 781.987 221.132C782.043 221.17 782.091 221.218 782.128 221.275C782.165 221.332 782.19 221.395 782.202 221.462L798.53 293.577C798.56 293.705 798.538 293.84 798.47 293.953C798.401 294.065 798.29 294.146 798.162 294.177L698.403 318.677C698.403 318.677 699.071 321.593 699.26 322.577C699.275 322.705 699.238 322.834 699.158 322.935C699.078 323.036 698.961 323.101 698.833 323.116C698.705 323.131 698.576 323.094 698.475 323.014C698.374 322.934 698.309 322.817 698.294 322.689C698.064 321.61 697.325 318.407 697.325 318.407Z" fill="#0C0C0C"/>
    <path d="M701.235 397.357L662.71 278.934C662.033 276.853 660.715 275.039 658.944 273.753C657.174 272.467 655.041 271.775 652.853 271.775H495.9C494.264 271.775 492.651 272.162 491.193 272.905C489.736 273.648 488.474 274.725 487.513 276.049C486.551 277.373 485.917 278.905 485.662 280.521C485.406 282.138 485.537 283.791 486.043 285.347L524.569 403.77C525.246 405.851 526.564 407.664 528.335 408.95C530.105 410.236 532.238 410.929 534.426 410.929H691.378C693.014 410.929 694.627 410.541 696.085 409.798C697.542 409.056 698.803 407.978 699.765 406.654C700.726 405.331 701.36 403.798 701.616 402.182C701.872 400.566 701.741 398.913 701.235 397.357Z" fill="#292A2E"/>
    <path opacity="0.2" d="M701.235 397.357L662.71 278.934C662.033 276.853 660.715 275.039 658.944 273.753C657.174 272.467 655.041 271.775 652.853 271.775H495.9C494.264 271.775 492.651 272.162 491.193 272.905C489.736 273.648 488.474 274.725 487.513 276.049C486.551 277.373 485.917 278.905 485.662 280.521C485.406 282.138 485.537 283.791 486.043 285.347L524.569 403.77C525.246 405.851 526.564 407.664 528.335 408.95C530.105 410.236 532.238 410.929 534.426 410.929H691.378C693.014 410.929 694.627 410.541 696.085 409.798C697.542 409.056 698.803 407.978 699.765 406.654C700.726 405.331 701.36 403.798 701.616 402.182C701.872 400.566 701.741 398.913 701.235 397.357Z" fill="white"/>
    <path d="M589.118 357.813C598.209 357.813 605.579 350.443 605.579 341.352C605.579 332.261 598.209 324.891 589.118 324.891C580.027 324.891 572.657 332.261 572.657 341.352C572.657 350.443 580.027 357.813 589.118 357.813Z" fill="white"/>
    <path d="M434.156 12.514H122.643C108.211 12.514 96.512 24.2133 96.512 38.645V416.815C96.512 431.247 108.211 442.946 122.643 442.946H434.156C448.588 442.946 460.287 431.247 460.287 416.815V38.645C460.287 24.2133 448.588 12.514 434.156 12.514Z" fill="#292A2E"/>
    <path d="M445.67 1H134.157C119.725 1 108.026 12.6992 108.026 27.131V405.301C108.026 419.733 119.725 431.432 134.157 431.432H445.67C460.102 431.432 471.801 419.733 471.801 405.301V27.131C471.801 12.6992 460.102 1 445.67 1Z" fill="white"/>
    <path d="M445.67 432.432H134.157C126.964 432.424 120.067 429.563 114.981 424.476C109.895 419.39 107.034 412.493 107.026 405.3V27.131C107.034 19.9378 109.895 13.0416 114.981 7.95526C120.068 2.86893 126.964 0.00794064 134.157 0L445.67 0C452.863 0.00820527 459.759 2.86931 464.845 7.95561C469.931 13.0419 472.792 19.938 472.8 27.131V405.3C472.792 412.493 469.932 419.39 464.845 424.476C459.759 429.563 452.863 432.424 445.67 432.432ZM134.157 2C127.494 2.00741 121.106 4.65751 116.395 9.36889C111.684 14.0803 109.033 20.4681 109.026 27.131V405.3C109.033 411.963 111.684 418.351 116.395 423.062C121.106 427.773 127.494 430.424 134.157 430.431H445.67C452.333 430.424 458.721 427.773 463.432 423.062C468.143 418.351 470.793 411.963 470.8 405.3V27.131C470.793 20.4682 468.143 14.0803 463.432 9.36895C458.721 4.65755 452.333 2.00741 445.67 2H134.157Z" fill="#292A2E"/>
    <path d="M103.83 485.544C139.661 485.544 168.707 456.498 168.707 420.667C168.707 384.836 139.661 355.79 103.83 355.79C67.9994 355.79 38.953 384.836 38.953 420.667C38.953 456.498 67.9994 485.544 103.83 485.544Z" fill="#292A2E"/>
    <path d="M90.362 412.2C89.5079 412.2 88.6888 411.861 88.0848 411.257C87.4807 410.653 87.1413 409.834 87.141 408.98V393.389C87.141 384.768 94.628 377.753 103.83 377.753C113.032 377.753 120.519 384.768 120.519 393.389V407.91C120.527 408.338 120.449 408.763 120.29 409.16C120.132 409.557 119.896 409.919 119.596 410.224C119.296 410.529 118.939 410.772 118.544 410.937C118.15 411.102 117.726 411.188 117.298 411.188C116.871 411.188 116.447 411.102 116.053 410.937C115.658 410.772 115.301 410.529 115.001 410.224C114.701 409.919 114.465 409.557 114.307 409.16C114.148 408.763 114.07 408.338 114.078 407.91V393.389C114.078 388.319 109.478 384.194 103.83 384.194C98.182 384.194 93.582 388.319 93.582 393.389V408.982C93.5815 409.836 93.242 410.654 92.6382 411.258C92.0344 411.861 91.2156 412.2 90.362 412.2Z" fill="white"/>
    <path d="M124.376 406.285H83.2839C80.8876 406.285 78.9449 408.228 78.9449 410.624V449.33C78.9449 451.726 80.8876 453.669 83.2839 453.669H124.376C126.772 453.669 128.715 451.726 128.715 449.33V410.624C128.715 408.228 126.772 406.285 124.376 406.285Z" fill="white"/>
    <path d="M99.7389 426.145C99.7385 426.913 99.954 427.665 100.361 428.316C100.767 428.967 101.349 429.491 102.039 429.827V436.113C102.039 436.587 102.227 437.041 102.562 437.376C102.897 437.711 103.351 437.899 103.825 437.899C104.299 437.899 104.753 437.711 105.088 437.376C105.423 437.041 105.611 436.587 105.611 436.113V429.827C106.268 429.508 106.828 429.019 107.232 428.411C107.637 427.802 107.871 427.097 107.91 426.367C107.949 425.638 107.793 424.911 107.456 424.262C107.12 423.614 106.616 423.067 105.997 422.68C105.378 422.292 104.666 422.077 103.936 422.057C103.206 422.037 102.483 422.213 101.844 422.567C101.205 422.921 100.672 423.439 100.301 424.068C99.93 424.697 99.7341 425.414 99.7339 426.145H99.7389Z" fill="#292A2E"/>
    <path d="M418.467 215.773H161.36C155.222 215.773 150.247 220.748 150.247 226.886V262.93C150.247 269.067 155.222 274.043 161.36 274.043H418.467C424.605 274.043 429.58 269.067 429.58 262.93V226.886C429.58 220.748 424.605 215.773 418.467 215.773Z" fill="white"/>
    <path d="M418.466 275.042H161.36C158.149 275.038 155.07 273.761 152.799 271.49C150.528 269.219 149.251 266.14 149.247 262.929V226.886C149.251 223.674 150.528 220.596 152.799 218.325C155.07 216.054 158.148 214.776 161.36 214.772H418.466C421.678 214.776 424.757 216.053 427.028 218.324C429.299 220.595 430.576 223.674 430.58 226.886V262.929C430.576 266.141 429.299 269.22 427.028 271.49C424.757 273.761 421.678 275.039 418.466 275.042ZM161.36 216.772C158.679 216.775 156.108 217.841 154.212 219.738C152.316 221.634 151.25 224.205 151.247 226.886V262.929C151.25 265.61 152.316 268.181 154.212 270.077C156.108 271.973 158.679 273.039 161.36 273.042H418.466C421.147 273.039 423.718 271.973 425.614 270.077C427.51 268.181 428.577 265.61 428.58 262.929V226.886C428.577 224.204 427.511 221.634 425.614 219.738C423.718 217.841 421.147 216.775 418.466 216.772H161.36Z" fill="#292A2E"/>
    <path d="M418.467 299.047H161.36C155.222 299.047 150.247 304.022 150.247 310.16V346.204C150.247 352.342 155.222 357.317 161.36 357.317H418.467C424.605 357.317 429.58 352.342 429.58 346.204V310.16C429.58 304.022 424.605 299.047 418.467 299.047Z" fill="white"/>
    <path d="M418.466 358.316H161.36C158.148 358.312 155.069 357.035 152.798 354.763C150.527 352.492 149.25 349.412 149.247 346.2V310.16C149.251 306.949 150.528 303.87 152.799 301.599C155.07 299.328 158.149 298.051 161.36 298.047H418.466C421.678 298.05 424.757 299.328 427.028 301.599C429.299 303.869 430.576 306.948 430.58 310.16V346.2C430.577 349.412 429.3 352.492 427.029 354.763C424.758 357.035 421.678 358.313 418.466 358.316ZM161.36 300.047C158.679 300.05 156.108 301.116 154.212 303.012C152.316 304.908 151.25 307.479 151.247 310.16V346.2C151.25 348.881 152.316 351.452 154.212 353.348C156.108 355.244 158.679 356.31 161.36 356.313H418.466C421.147 356.31 423.718 355.244 425.614 353.348C427.511 351.452 428.577 348.881 428.58 346.2V310.16C428.577 307.479 427.511 304.908 425.614 303.012C423.718 301.116 421.147 300.05 418.466 300.047H161.36Z" fill="#292A2E"/>
    <path d="M289.913 172.43C322.881 172.43 349.607 145.704 349.607 112.736C349.607 79.7679 322.881 53.042 289.913 53.042C256.945 53.042 230.219 79.7679 230.219 112.736C230.219 145.704 256.945 172.43 289.913 172.43Z" fill="white"/>
    <path d="M289.913 173.43C277.909 173.43 266.174 169.87 256.193 163.201C246.212 156.532 238.433 147.053 233.839 135.963C229.245 124.872 228.043 112.669 230.385 100.895C232.727 89.1217 238.508 78.3071 246.996 69.8189C255.484 61.3307 266.299 55.5501 278.072 53.2082C289.846 50.8663 302.049 52.0683 313.14 56.6621C324.23 61.2559 333.709 69.0352 340.378 79.0162C347.047 88.9973 350.607 100.732 350.607 112.736C350.589 128.828 344.189 144.255 332.81 155.633C321.432 167.012 306.005 173.412 289.913 173.43ZM289.913 54.042C278.304 54.042 266.957 57.4844 257.304 63.9337C247.652 70.3831 240.129 79.5499 235.687 90.2748C231.244 101 230.082 112.801 232.347 124.187C234.612 135.572 240.202 146.03 248.41 154.239C256.619 162.447 267.077 168.038 278.462 170.302C289.848 172.567 301.649 171.405 312.374 166.962C323.099 162.52 332.266 154.997 338.715 145.345C345.165 135.692 348.607 124.345 348.607 112.736C348.59 97.1748 342.4 82.2559 331.397 71.2524C320.393 60.2489 305.474 54.0595 289.913 54.042Z" fill="#292A2E"/>
    <path opacity="0.5" d="M348.281 112.736C348.298 126.553 343.395 139.924 334.451 150.455C328.942 144.033 322.109 138.878 314.421 135.344C306.732 131.81 298.371 129.982 289.909 129.983C281.448 129.985 273.087 131.816 265.4 135.353C257.713 138.889 250.882 144.047 245.375 150.471C239.301 143.303 235.048 134.774 232.976 125.61C230.904 116.446 231.075 106.917 233.474 97.8326C235.873 88.7486 240.43 80.3779 246.756 73.4319C253.083 66.4858 260.993 61.1696 269.814 57.9349C278.635 54.7003 288.107 53.6428 297.424 54.8523C306.741 56.0618 315.629 59.5025 323.332 64.8822C331.035 70.2619 337.325 77.4215 341.669 85.7527C346.012 94.0839 348.281 103.34 348.281 112.736Z" fill="#367CFF"/>
    <path d="M334.451 150.455C328.973 156.924 322.151 162.123 314.46 165.689C306.769 169.255 298.394 171.103 289.917 171.104C281.439 171.106 273.064 169.261 265.371 165.697C257.679 162.134 250.856 156.938 245.375 150.471C250.882 144.046 257.713 138.889 265.4 135.353C273.087 131.816 281.448 129.985 289.909 129.983C298.371 129.982 306.732 131.81 314.421 135.344C322.109 138.878 328.942 144.032 334.451 150.455Z" fill="white"/>
    <path d="M289.914 119.093C302.944 119.093 313.507 108.53 313.507 95.5C313.507 82.4699 302.944 71.907 289.914 71.907C276.884 71.907 266.321 82.4699 266.321 95.5C266.321 108.53 276.884 119.093 289.914 119.093Z" fill="white"/>
    <g opacity="0.4">
      <path d="M171.889 335.278C175.808 335.278 178.985 332.101 178.985 328.182C178.985 324.263 175.808 321.086 171.889 321.086C167.97 321.086 164.793 324.263 164.793 328.182C164.793 332.101 167.97 335.278 171.889 335.278Z" fill="#292A2E"/>
      <path d="M194.086 335.278C198.005 335.278 201.182 332.101 201.182 328.182C201.182 324.263 198.005 321.086 194.086 321.086C190.167 321.086 186.99 324.263 186.99 328.182C186.99 332.101 190.167 335.278 194.086 335.278Z" fill="#292A2E"/>
      <path d="M216.283 335.278C220.202 335.278 223.379 332.101 223.379 328.182C223.379 324.263 220.202 321.086 216.283 321.086C212.364 321.086 209.187 324.263 209.187 328.182C209.187 332.101 212.364 335.278 216.283 335.278Z" fill="#292A2E"/>
      <path d="M238.48 335.278C242.399 335.278 245.576 332.101 245.576 328.182C245.576 324.263 242.399 321.086 238.48 321.086C234.561 321.086 231.384 324.263 231.384 328.182C231.384 332.101 234.561 335.278 238.48 335.278Z" fill="#292A2E"/>
      <path d="M260.676 335.278C264.595 335.278 267.772 332.101 267.772 328.182C267.772 324.263 264.595 321.086 260.676 321.086C256.757 321.086 253.58 324.263 253.58 328.182C253.58 332.101 256.757 335.278 260.676 335.278Z" fill="#292A2E"/>
      <path d="M282.873 335.278C286.792 335.278 289.969 332.101 289.969 328.182C289.969 324.263 286.792 321.086 282.873 321.086C278.954 321.086 275.777 324.263 275.777 328.182C275.777 332.101 278.954 335.278 282.873 335.278Z" fill="#292A2E"/>
      <path d="M305.07 335.278C308.989 335.278 312.166 332.101 312.166 328.182C312.166 324.263 308.989 321.086 305.07 321.086C301.151 321.086 297.974 324.263 297.974 328.182C297.974 332.101 301.151 335.278 305.07 335.278Z" fill="#292A2E"/>
    </g>
    <g opacity="0.3">
      <path d="M178.927 244.48V246.88H169.814V244.48H178.927Z" fill="black"/>
      <path d="M190.252 244.48V246.88H181.139V244.48H190.252Z" fill="black"/>
      <path d="M201.576 244.48V246.88H192.463V244.48H201.576Z" fill="black"/>
      <path d="M212.9 244.48V246.88H203.787V244.48H212.9Z" fill="black"/>
      <path d="M224.226 244.48V246.88H215.112V244.48H224.226Z" fill="black"/>
      <path d="M244.663 258.021C242.636 259.062 240.378 259.571 238.1 259.5C232.049 259.5 226.92 255.072 226.92 247.988C226.92 240.388 232.197 233.82 240.387 233.82C246.807 233.82 251.124 238.32 251.124 244.483C251.124 250.018 248.024 253.264 244.556 253.264C243.081 253.264 241.716 252.264 241.826 250.018H241.678C241.201 250.991 240.461 251.81 239.542 252.384C238.623 252.958 237.561 253.263 236.478 253.264C234.338 253.264 232.493 251.53 232.493 248.616C232.489 247.467 232.712 246.327 233.15 245.265C233.588 244.202 234.232 243.236 235.045 242.423C235.858 241.61 236.824 240.966 237.887 240.528C238.949 240.09 240.088 239.867 241.238 239.871C242.594 239.851 243.938 240.115 245.186 240.646L243.931 247.324C243.378 250.124 243.821 251.424 245.038 251.457C246.92 251.493 249.023 248.984 249.023 244.705C249.023 239.355 245.813 235.518 240.094 235.518C234.08 235.518 229.025 240.277 229.025 247.767C229.025 253.929 233.047 257.729 238.508 257.729C240.444 257.774 242.36 257.33 244.079 256.438L244.663 258.021ZM242.634 242.082C242.035 241.906 241.413 241.819 240.789 241.824C237.542 241.824 234.923 244.886 234.923 248.465C234.923 250.088 235.735 251.265 237.358 251.265C239.498 251.265 241.453 248.535 241.858 246.247L242.634 242.082Z" fill="black"/>
      <path d="M262.737 244.48V246.88H253.624V244.48H262.737Z" fill="black"/>
      <path d="M274.062 244.48V246.88H264.948V244.48H274.062Z" fill="black"/>
      <path d="M285.386 244.48V246.88H276.273V244.48H285.386Z" fill="black"/>
    </g>
  </g>
  <defs>
    <clipPath id="clip0_34_1058">
      <rect width="890.143" height="862.058" fill="white"/>
    </clipPath>
  </defs>
</svg>
