<svg width="28" height="27" viewBox="0 0 28 27" fill="none" xmlns="http://www.w3.org/2000/svg">
<path d="M13.9866 0C6.62663 0 0.666626 5.97333 0.666626 13.3333C0.666626 20.6933 6.62663 26.6667 13.9866 26.6667C21.36 26.6667 27.3333 20.6933 27.3333 13.3333C27.3333 5.97333 21.36 0 13.9866 0ZM14 24C8.10663 24 3.33329 19.2267 3.33329 13.3333C3.33329 7.44 8.10663 2.66667 14 2.66667C19.8933 2.66667 24.6666 7.44 24.6666 13.3333C24.6666 19.2267 19.8933 24 14 24ZM14.6666 6.66667H12.6666V14.6667L19.6666 18.8667L20.6666 17.2267L14.6666 13.6667V6.66667Z" fill="#F29D38"/>
</svg>
