<svg width="25" height="24" viewBox="0 0 25 24" fill="none" xmlns="http://www.w3.org/2000/svg">
<path d="M0.333374 21.3333H21.6667V24H0.333374V21.3333ZM21.6667 0H0.333374V13.3333C0.333374 16.28 2.72004 18.6667 5.66671 18.6667H13.6667C16.6134 18.6667 19 16.28 19 13.3333V9.33333H21.6667C23.1467 9.33333 24.3334 8.13333 24.3334 6.66667V2.66667C24.3334 1.18667 23.1467 0 21.6667 0ZM16.3334 13.3333C16.3334 14.8 15.1334 16 13.6667 16H5.66671C4.20004 16 3.00004 14.8 3.00004 13.3333V2.66667H16.3334V13.3333ZM21.6667 6.66667H19V2.66667H21.6667V6.66667Z" fill="#F29D38"/>
</svg>
