<svg width="30" height="21" viewBox="0 0 30 21" fill="none" xmlns="http://www.w3.org/2000/svg">
<path d="M4.29948 0C1.64481 2.656 0 6.32319 0 10.3672C0 14.4112 1.64481 18.0784 4.29948 20.7344L6.1849 18.849C4.01156 16.6756 2.66667 13.6752 2.66667 10.3672C2.66667 7.05919 4.01156 4.05875 6.1849 1.88542L4.29948 0ZM25.0339 0L23.1484 1.88542C25.3218 4.05875 26.6667 7.05919 26.6667 10.3672C26.6667 13.6752 25.3218 16.6756 23.1484 18.849L25.0339 20.7344C27.6885 18.0784 29.3333 14.4112 29.3333 10.3672C29.3333 6.32319 27.6885 2.656 25.0339 0ZM8.07031 3.77083C6.37965 5.46017 5.33333 7.79385 5.33333 10.3672C5.33333 12.9405 6.37965 15.2742 8.07031 16.9635L9.95573 15.0781C8.74773 13.8715 8 12.2045 8 10.3672C8 8.52985 8.74906 6.86425 9.95573 5.65625L8.07031 3.77083ZM21.263 3.77083L19.3776 5.65625C20.5856 6.86292 21.3333 8.52985 21.3333 10.3672C21.3333 12.2045 20.5843 13.8701 19.3776 15.0781L21.263 16.9635C22.9524 15.2729 24 12.9405 24 10.3672C24 7.79385 22.9537 5.46017 21.263 3.77083ZM14.6667 6.36719C13.6058 6.36719 12.5884 6.78861 11.8382 7.53876C11.0881 8.28891 10.6667 9.30632 10.6667 10.3672C10.6667 11.4281 11.0881 12.4455 11.8382 13.1956C12.5884 13.9458 13.6058 14.3672 14.6667 14.3672C15.7275 14.3672 16.7449 13.9458 17.4951 13.1956C18.2452 12.4455 18.6667 11.4281 18.6667 10.3672C18.6667 9.30632 18.2452 8.28891 17.4951 7.53876C16.7449 6.78861 15.7275 6.36719 14.6667 6.36719Z" fill="#F29D38"/>
</svg>
