<svg width="20" height="26" viewBox="0 0 20 26" fill="none" xmlns="http://www.w3.org/2000/svg">
<path d="M8.66663 0V15.4141C7.87779 14.9515 6.97419 14.6667 5.99996 14.6667C3.07023 14.6667 0.666626 17.0703 0.666626 20C0.666626 22.9297 3.07023 25.3333 5.99996 25.3333C8.92968 25.3333 11.3333 22.9297 11.3333 20V8H19.3333V0H8.66663ZM11.3333 2.66667H16.6666V5.33333H11.3333V2.66667ZM5.99996 17.3333C7.48851 17.3333 8.66663 18.5114 8.66663 20C8.66663 21.4886 7.48851 22.6667 5.99996 22.6667C4.51141 22.6667 3.33329 21.4886 3.33329 20C3.33329 18.5114 4.51141 17.3333 5.99996 17.3333Z" fill="#F29D38"/>
</svg>
