<svg width="96" height="96" viewBox="0 0 96 96" fill="none" xmlns="http://www.w3.org/2000/svg">
<g clip-path="url(#clip0_20_116)">
<g filter="url(#filter0_di_20_116)">
<path d="M47.96 0C25.88 0 8 17.92 8 40C8 62.08 25.88 80 47.96 80C70.08 80 88 62.08 88 40C88 17.92 70.08 0 47.96 0ZM48 72C30.32 72 16 57.68 16 40C16 22.32 30.32 8 48 8C65.68 8 80 22.32 80 40C80 57.68 65.68 72 48 72ZM50 20H44V44L65 56.6L68 51.68L50 41V20Z" fill="#F29D38"/>
</g>
</g>
<defs>
<filter id="filter0_di_20_116" x="4" y="0" width="88" height="88" filterUnits="userSpaceOnUse" color-interpolation-filters="sRGB">
<feFlood flood-opacity="0" result="BackgroundImageFix"/>
<feColorMatrix in="SourceAlpha" type="matrix" values="0 0 0 0 0 0 0 0 0 0 0 0 0 0 0 0 0 0 127 0" result="hardAlpha"/>
<feOffset dy="4"/>
<feGaussianBlur stdDeviation="2"/>
<feComposite in2="hardAlpha" operator="out"/>
<feColorMatrix type="matrix" values="0 0 0 0 0.94902 0 0 0 0 0.615686 0 0 0 0 0.219608 0 0 0 0.25 0"/>
<feBlend mode="normal" in2="BackgroundImageFix" result="effect1_dropShadow_20_116"/>
<feBlend mode="normal" in="SourceGraphic" in2="effect1_dropShadow_20_116" result="shape"/>
<feColorMatrix in="SourceAlpha" type="matrix" values="0 0 0 0 0 0 0 0 0 0 0 0 0 0 0 0 0 0 127 0" result="hardAlpha"/>
<feOffset dx="2" dy="1"/>
<feGaussianBlur stdDeviation="2"/>
<feComposite in2="hardAlpha" operator="arithmetic" k2="-1" k3="1"/>
<feColorMatrix type="matrix" values="0 0 0 0 1 0 0 0 0 1 0 0 0 0 1 0 0 0 0.25 0"/>
<feBlend mode="normal" in2="shape" result="effect2_innerShadow_20_116"/>
</filter>
<clipPath id="clip0_20_116">
<rect width="96" height="96" fill="white"/>
</clipPath>
</defs>
</svg>
