<svg width="96" height="96" viewBox="0 0 96 96" fill="none" xmlns="http://www.w3.org/2000/svg">
<g clip-path="url(#clip0_20_110)">
<g filter="url(#filter0_di_20_110)">
<path d="M19.8984 0C11.9344 7.968 7 18.9696 7 31.1016C7 43.2336 11.9344 54.2351 19.8984 62.2031L25.5547 56.5469C19.0347 50.0269 15 41.0256 15 31.1016C15 21.1776 19.0347 12.1763 25.5547 5.65625L19.8984 0ZM82.1016 0L76.4453 5.65625C82.9653 12.1763 87 21.1776 87 31.1016C87 41.0256 82.9653 50.0269 76.4453 56.5469L82.1016 62.2031C90.0656 54.2351 95 43.2336 95 31.1016C95 18.9696 90.0656 7.968 82.1016 0ZM31.2109 11.3125C26.1389 16.3805 23 23.3816 23 31.1016C23 38.8216 26.1389 45.8226 31.2109 50.8906L36.8672 45.2344C33.2432 41.6144 31 36.6136 31 31.1016C31 25.5896 33.2472 20.5928 36.8672 16.9688L31.2109 11.3125ZM70.7891 11.3125L65.1328 16.9688C68.7568 20.5887 71 25.5896 71 31.1016C71 36.6136 68.7528 41.6104 65.1328 45.2344L70.7891 50.8906C75.8571 45.8186 79 38.8216 79 31.1016C79 23.3816 75.8611 16.3805 70.7891 11.3125ZM51 19.1016C47.8174 19.1016 44.7652 20.3658 42.5147 22.6163C40.2643 24.8667 39 27.919 39 31.1016C39 34.2842 40.2643 37.3364 42.5147 39.5868C44.7652 41.8373 47.8174 43.1016 51 43.1016C54.1826 43.1016 57.2348 41.8373 59.4853 39.5868C61.7357 37.3364 63 34.2842 63 31.1016C63 27.919 61.7357 24.8667 59.4853 22.6163C57.2348 20.3658 54.1826 19.1016 51 19.1016Z" fill="#F29D38"/>
</g>
</g>
<defs>
<filter id="filter0_di_20_110" x="3" y="0" width="96" height="70.2031" filterUnits="userSpaceOnUse" color-interpolation-filters="sRGB">
<feFlood flood-opacity="0" result="BackgroundImageFix"/>
<feColorMatrix in="SourceAlpha" type="matrix" values="0 0 0 0 0 0 0 0 0 0 0 0 0 0 0 0 0 0 127 0" result="hardAlpha"/>
<feOffset dy="4"/>
<feGaussianBlur stdDeviation="2"/>
<feComposite in2="hardAlpha" operator="out"/>
<feColorMatrix type="matrix" values="0 0 0 0 0.94902 0 0 0 0 0.615686 0 0 0 0 0.219608 0 0 0 0.25 0"/>
<feBlend mode="normal" in2="BackgroundImageFix" result="effect1_dropShadow_20_110"/>
<feBlend mode="normal" in="SourceGraphic" in2="effect1_dropShadow_20_110" result="shape"/>
<feColorMatrix in="SourceAlpha" type="matrix" values="0 0 0 0 0 0 0 0 0 0 0 0 0 0 0 0 0 0 127 0" result="hardAlpha"/>
<feOffset dx="2" dy="1"/>
<feGaussianBlur stdDeviation="2"/>
<feComposite in2="hardAlpha" operator="arithmetic" k2="-1" k3="1"/>
<feColorMatrix type="matrix" values="0 0 0 0 1 0 0 0 0 1 0 0 0 0 1 0 0 0 0.25 0"/>
<feBlend mode="normal" in2="shape" result="effect2_innerShadow_20_110"/>
</filter>
<clipPath id="clip0_20_110">
<rect width="96" height="96" fill="white"/>
</clipPath>
</defs>
</svg>
