<svg width="96" height="96" viewBox="0 0 96 96" fill="none" xmlns="http://www.w3.org/2000/svg">
<g clip-path="url(#clip0_20_123)">
<g filter="url(#filter0_di_20_123)">
<path d="M44 12V58.2422C41.6335 56.8546 38.9227 56 36 56C27.2108 56 20 63.2108 20 72C20 80.7892 27.2108 88 36 88C44.7892 88 52 80.7892 52 72V36H76V12H44ZM52 20H68V28H52V20ZM36 64C40.4657 64 44 67.5343 44 72C44 76.4657 40.4657 80 36 80C31.5343 80 28 76.4657 28 72C28 67.5343 31.5343 64 36 64Z" fill="#F29D38"/>
</g>
</g>
<defs>
<filter id="filter0_di_20_123" x="16" y="12" width="64" height="84" filterUnits="userSpaceOnUse" color-interpolation-filters="sRGB">
<feFlood flood-opacity="0" result="BackgroundImageFix"/>
<feColorMatrix in="SourceAlpha" type="matrix" values="0 0 0 0 0 0 0 0 0 0 0 0 0 0 0 0 0 0 127 0" result="hardAlpha"/>
<feOffset dy="4"/>
<feGaussianBlur stdDeviation="2"/>
<feComposite in2="hardAlpha" operator="out"/>
<feColorMatrix type="matrix" values="0 0 0 0 0.94902 0 0 0 0 0.615686 0 0 0 0 0.219608 0 0 0 0.25 0"/>
<feBlend mode="normal" in2="BackgroundImageFix" result="effect1_dropShadow_20_123"/>
<feBlend mode="normal" in="SourceGraphic" in2="effect1_dropShadow_20_123" result="shape"/>
<feColorMatrix in="SourceAlpha" type="matrix" values="0 0 0 0 0 0 0 0 0 0 0 0 0 0 0 0 0 0 127 0" result="hardAlpha"/>
<feOffset dx="2" dy="1"/>
<feGaussianBlur stdDeviation="2"/>
<feComposite in2="hardAlpha" operator="arithmetic" k2="-1" k3="1"/>
<feColorMatrix type="matrix" values="0 0 0 0 1 0 0 0 0 1 0 0 0 0 1 0 0 0 0.25 0"/>
<feBlend mode="normal" in2="shape" result="effect2_innerShadow_20_123"/>
</filter>
<clipPath id="clip0_20_123">
<rect width="96" height="96" fill="white"/>
</clipPath>
</defs>
</svg>
